<?xml version="1.0" encoding="UTF-8"?>
<svg xmlns="http://www.w3.org/2000/svg" xmlns:xlink="http://www.w3.org/1999/xlink" version="1.1" id="Layer_1" x="0px" y="0px" viewBox="0 0 711.3 270.8" style="enable-background:new 0 0 711.3 270.8;" xml:space="preserve">
<style type="text/css">
	.st0{fill:#FFFFFF;}
</style>
<g>
	<path class="st0" d="M711.3,226.2c-2.7,8.6-5.4,17.3-8.4,26.7c-0.3,1.1-1.3,1.8-2.4,1.8c-125.6,0.9-251.5-0.4-378.6-0.5   c-1.7,0-3-1.7-2.5-3.3c9.4-31.9,18.6-63.3,28-95.4c0.5-1.6-0.7-3.3-2.5-3.3H96.6c-2.5,0-3.5,3.1-1.5,4.6   c38.2,28.9,76.1,57.6,114.1,86.3c1.1,0.9,1.4,2.5,0.5,3.6c-5.6,7.5-11,14.5-16.5,21.9c-0.8,1.1-2.3,1.3-3.4,0.7   c-1.2-0.7-2.4-1.5-3.7-2.2c-1.1-0.7-2.5-0.4-3.3,0.5c-0.6,0.7-1.2,1.4-1.9,2.2c-0.9,1-2.4,1.2-3.5,0.4   C118.9,226.2,60.3,182,1,137.2c-1.4-1-1.4-3.1,0-4.1c59-44,117.7-87.8,176.7-131.7c1.1-0.8,2.6-0.6,3.5,0.3l1.2,1.3   c0.9,1,2.3,1.1,3.4,0.4l4.1-3c1.1-0.8,2.7-0.6,3.6,0.6c5.5,7.3,10.9,14.6,16.7,22.3c0.9,1.1,0.6,2.8-0.5,3.6L94.5,112.5   c1,2.9,0.9,2.9,1.9,5.8h304.5c1.7,0,3,1.7,2.5,3.3c-9.5,32.2-18.7,63.6-28.2,95.9c-0.5,1.6,0.8,3.3,2.5,3.3c5.6,0,11,0,16.4,0   c26.4,0.1,52.7,0.2,79.1,0.2c33.7,0.1,67.4,0.1,101,0.2c43.1,0.1,86.2,0.3,129.3,0.5c1.4,0,2.7-0.1,4.1-0.2   C709.1,223.5,709.7,224.2,711.3,226.2z"></path>
</g>
</svg>
